HIERARCHY
ROOT hip
{
  OFFSET 0 0 0
  CHANNELS 6 Xposition Yposition Zposition Zrotation Yrotation Xrotation
  JOINT abdomen
  {
    OFFSET 0 20.6881 -0.73152
    CHANNELS 3 Zrotation Xrotation Yrotation
    JOINT chest
    {
      OFFSET 0 11.7043 -0.48768
      CHANNELS 3 Zrotation Xrotation Yrotation
      JOINT neck
      {
        OFFSET 0 22.1894 -2.19456
        CHANNELS 3 Zrotation Xrotation Yrotation
        JOINT head
        {
          OFFSET -0.24384 7.07133 1.2192
          CHANNELS 3 Zrotation Xrotation Yrotation
          JOINT leftEye
          {
            OFFSET 4.14528 8.04674 8.04672
            CHANNELS 3 Zrotation Xrotation Yrotation
            End Site
            {
              OFFSET 1 0 0
            }
          }
          JOINT rightEye
          {
            OFFSET -3.6576 8.04674 8.04672
            CHANNELS 3 Zrotation Xrotation Yrotation
            End Site
            {
              OFFSET 1 0 0
            }
          }
        }
      }
      JOINT rCollar
      {
        OFFSET -2.68224 19.2634 -4.8768
        CHANNELS 3 Zrotation Xrotation Yrotation
        JOINT rShldr
        {
          OFFSET -8.77824 -1.95073 1.46304
          CHANNELS 3 Zrotation Xrotation Yrotation
          JOINT rForeArm
          {
            OFFSET -28.1742 -1.7115 0.48768
            CHANNELS 3 Zrotation Xrotation Yrotation
            JOINT rHand
            {
              OFFSET -22.5879 0.773209 7.07136
              CHANNELS 3 Zrotation Xrotation Yrotation
              JOINT rThumb1
              {
                OFFSET -1.2192 -0.487915 3.41376
                CHANNELS 3 Zrotation Xrotation Yrotation
                JOINT rThumb2
                {
                  OFFSET -3.37035 -0.52449 3.41376
                  CHANNELS 3 Zrotation Xrotation Yrotation
                  End Site
                  {
                    OFFSET -1.78271 -1.18214 1.43049
                  }
                }
              }
              JOINT rIndex1
              {
                OFFSET -7.75947 0.938293 5.60832
                CHANNELS 3 Zrotation Xrotation Yrotation
                JOINT rIndex2
                {
                  OFFSET -2.54057 -0.884171 1.56538
                  CHANNELS 3 Zrotation Xrotation Yrotation
                  End Site
                  {
                    OFFSET -1.62519 -0.234802 1.16502
                  }
                }
              }
              JOINT rMid1
              {
                OFFSET -8.24714 1.18213 3.41376
                CHANNELS 3 Zrotation Xrotation Yrotation
                JOINT rMid2
                {
                  OFFSET -3.10165 -0.590103 1.0647
                  CHANNELS 3 Zrotation Xrotation Yrotation
                  End Site
                  {
                    OFFSET -2.48547 -0.328903 0.83742
                  }
                }
              }
              JOINT rRing1
              {
                OFFSET -8.82822 0.546677 1.51678
                CHANNELS 3 Zrotation Xrotation Yrotation
                JOINT rRing2
                {
                  OFFSET -2.60934 -0.819778 -0.0198488
                  CHANNELS 3 Zrotation Xrotation Yrotation
                  End Site
                  {
                    OFFSET -2.33842 -0.294052 0.168128
                  }
                }
              }
              JOINT rPinky1
              {
                OFFSET -8.27202 -0.0477905 -0.4584
                CHANNELS 3 Zrotation Xrotation Yrotation
                JOINT rPinky2
                {
                  OFFSET -1.82734 -0.647385 -0.700984
                  CHANNELS 3 Zrotation Xrotation Yrotation
                  End Site
                  {
                    OFFSET -1.69225 -0.51767 -0.607171
                  }
                }
              }
            }
          }
        }
      }
      JOINT lCollar
      {
        OFFSET 2.68224 19.2634 -4.8768
        CHANNELS 3 Zrotation Xrotation Yrotation
        JOINT lShldr
        {
          OFFSET 8.77824 -1.95073 1.46304
          CHANNELS 3 Zrotation Xrotation Yrotation
          JOINT lForeArm
          {
            OFFSET 28.1742 -1.7115 0.48768
            CHANNELS 3 Zrotation Xrotation Yrotation
            JOINT lHand
            {
              OFFSET 22.5879 0.773209 7.07136
              CHANNELS 3 Zrotation Xrotation Yrotation
              JOINT lThumb1
              {
                OFFSET 1.2192 -0.487915 3.41376
                CHANNELS 3 Zrotation Xrotation Yrotation
                JOINT lThumb2
                {
                  OFFSET 3.37035 -0.52449 3.41376
                  CHANNELS 3 Zrotation Xrotation Yrotation
                  End Site
                  {
                    OFFSET 1.78271 -1.18214 1.43049
                  }
                }
              }
              JOINT lIndex1
              {
                OFFSET 7.75947 0.938293 5.60832
                CHANNELS 3 Zrotation Xrotation Yrotation
                JOINT lIndex2
                {
                  OFFSET 2.54057 -0.884171 1.56538
                  CHANNELS 3 Zrotation Xrotation Yrotation
                  End Site
                  {
                    OFFSET 1.62519 -0.234802 1.16502
                  }
                }
              }
              JOINT lMid1
              {
                OFFSET 8.24714 1.18213 3.41376
                CHANNELS 3 Zrotation Xrotation Yrotation
                JOINT lMid2
                {
                  OFFSET 3.10165 -0.590103 1.0647
                  CHANNELS 3 Zrotation Xrotation Yrotation
                  End Site
                  {
                    OFFSET 2.48547 -0.328903 0.83742
                  }
                }
              }
              JOINT lRing1
              {
                OFFSET 8.82822 0.546677 1.51678
                CHANNELS 3 Zrotation Xrotation Yrotation
                JOINT lRing2
                {
                  OFFSET 2.60934 -0.819778 -0.0198488
                  CHANNELS 3 Zrotation Xrotation Yrotation
                  End Site
                  {
                    OFFSET 2.33842 -0.294052 0.168128
                  }
                }
              }
              JOINT lPinky1
              {
                OFFSET 8.27202 -0.0477905 -0.4584
                CHANNELS 3 Zrotation Xrotation Yrotation
                JOINT lPinky2
                {
                  OFFSET 1.82734 -0.647385 -0.700984
                  CHANNELS 3 Zrotation Xrotation Yrotation
                  End Site
                  {
                    OFFSET 1.69225 -0.51767 -0.607171
                  }
                }
              }
            }
          }
        }
      }
    }
  }
  JOINT rButtock
  {
    OFFSET -8.77824 4.35084 1.2192
    CHANNELS 3 Zrotation Xrotation Yrotation
    JOINT rThigh
    {
      OFFSET 0 -1.70687 -2.19456
      CHANNELS 3 Zrotation Xrotation Yrotation
      JOINT rShin
      {
        OFFSET 0 -36.8199 0.73152
        CHANNELS 3 Zrotation Xrotation Yrotation
        JOINT rFoot
        {
          OFFSET 0.73152 -45.1104 -5.12064
          CHANNELS 3 Zrotation Xrotation Yrotation
          End Site
          {
            OFFSET -1.1221 -3.69964 12.103
          }
        }
      }
    }
  }
  JOINT lButtock
  {
    OFFSET 8.77824 4.35084 1.2192
    CHANNELS 3 Zrotation Xrotation Yrotation
    JOINT lThigh
    {
      OFFSET 0 -1.70687 -2.19456
      CHANNELS 3 Zrotation Xrotation Yrotation
      JOINT lShin
      {
        OFFSET 0 -36.8199 0.73152
        CHANNELS 3 Zrotation Xrotation Yrotation
        JOINT lFoot
        {
          OFFSET -0.73152 -45.1104 -5.12064
          CHANNELS 3 Zrotation Xrotation Yrotation
          End Site
          {
            OFFSET 1.1221 -3.69964 12.103
          }
        }
      }
    }
  }
}
MOTION
Frames:	4
Frame Time:	0.00833333
-213.904 83.185 10.8624 0.0 0.0 0.0 -3.13119 0.00208552 -0.0845026 -0.863225 0.0181966 -0.149331 1.38446e-14 -7.95139e-16 9.44227e-16 4.1487e-14 3.18055e-15 2.78299e-15 -0.0 0.0 0.0 -0.0 0.0 0.0 6.36115e-15 2.00726e-16 5.96354e-16 1.49031e-13 4.25523e-15 1.17283e-14 2.55627e-12 -6.10468e-13 1.78111e-13 2.90382e-11 1.55807e-12 1.95922e-12 6.85339e-11 2.057e-12 4.61817e-12 1.18347e-10 3.55268e-12 7.96331e-12 6.8539e-11 2.05583e-12 4.6118e-12 7.73091 5.47488 0.417314 6.85329e-11 2.05643e-12 4.61817e-12 2.90554 0.965183 0.102902 6.8539e-11 2.05752e-12 4.61578e-12 10.2786 0.731801 0.0259123 6.85272e-11 2.05981e-12 4.61817e-12 2.22167 -0.733487 -0.20892 6.46091e-15 1.98008e-16 3.97569e-16 1.45252e-13 3.88872e-15 9.54166e-15 2.52153e-12 9.17391e-13 1.36764e-13 2.90895e-11 1.69215e-14 1.99421e-12 6.85725e-11 2.03404e-12 4.60544e-12 1.18431e-10 3.51133e-12 7.9498e-12 6.8568e-11 2.03556e-12 4.6118e-12 -7.73091 5.47488 -0.417314 6.85732e-11 2.03357e-12 4.5959e-12 -2.90554 0.965183 -0.102902 6.85658e-11 2.03436e-12 4.60147e-12 -10.2786 0.731801 -0.0259123 6.85757e-11 2.03595e-12 4.5959e-12 -2.22167 -0.733487 0.20892 -2.03217e-16 0.0 -3.88251e-19 -1.91897 -1.93503 0.0146275 -0.00849933 -2.07867 -0.0697496 -0.458471 4.00011 0.13243 2.03217e-16 0.0 3.88251e-19 -2.8384 -9.32624 0.32237 -0.00902377 11.3079 -0.235069 0.527541 -1.99508 -0.0183795
-208.789 81.8039 2.86043 -177.748 67.3205 -176.144 -3.37138 4.94096 0.294335 -0.267502 1.13089 0.0033412 -3.80787 5.20442 -3.39922 11.9506 -11.1481 -2.83995 -0.0 0.0 0.0 -0.0 0.0 0.0 -1.15033e-13 9.67116e-14 2.81767e-13 20.891 20.9381 4.51861 -15.2759 -12.5337 14.609 0.0216575 -3.28417 -0.458884 1.39054e-09 -5.30823e-09 -9.01717e-10 2.41009e-09 -9.18455e-09 -1.55076e-09 1.39054e-09 -5.30823e-09 -9.01726e-10 7.73091 5.47488 0.417314 1.39054e-09 -5.30822e-09 -9.01719e-10 2.90554 0.965183 0.102902 1.39055e-09 -5.30823e-09 -9.01719e-10 10.2786 0.731801 0.0259123 1.39053e-09 -5.30822e-09 -9.01715e-10 2.22167 -0.733487 -0.20892 -1.14975e-13 9.67098e-14 2.81556e-13 -22.1759 13.6665 -1.48895 17.049 -14.5076 -14.9611 -0.176606 -9.34536 1.25119 -7.17597e-10 -2.69629e-10 -1.26413e-09 -1.20765e-09 -4.65862e-10 -2.2005e-09 -7.17602e-10 -2.69628e-10 -1.26412e-09 -7.73091 5.47488 -0.417314 -7.17597e-10 -2.6963e-10 -1.26413e-09 -2.90554 0.965183 -0.102902 -7.17604e-10 -2.6963e-10 -1.26413e-09 -10.2786 0.731801 -0.0259123 -7.17593e-10 -2.69627e-10 -1.26414e-09 -2.22167 -0.733487 0.20892 -2.03217e-16 0.0 -3.88251e-19 -1.77756 -5.72537 -0.443423 0.0250974 7.92438 0.116949 -1.53609 -1.89496 -7.08576 2.03217e-16 0.0 3.88251e-19 -0.642113 -13.2947 -0.994945 0.0137362 17.9112 -0.294543 0.623219 -4.10001 0.954705
-208.841 81.8807 2.85091 -177.743 67.1716 -176.069 -3.70095 10.1534 0.702179 0.353429 2.31059 0.164111 -7.15288 10.6367 -7.08534 23.2825 -22.824 -6.22629 -0.0 0.0 0.0 -0.0 0.0 0.0 -2.52699e-13 2.08563e-13 6.02041e-13 38.242 42.5669 11.8285 -24.2961 -22.9925 32.1382 -0.01303 -6.7146 -0.943357 2.87001e-09 -1.12592e-08 -1.92199e-09 4.97485e-09 -1.94812e-08 -3.30546e-09 2.87001e-09 -1.12592e-08 -1.922e-09 7.73091 5.47488 0.417314 2.87e-09 -1.12592e-08 -1.922e-09 2.90554 0.965183 0.102902 2.87001e-09 -1.12592e-08 -1.92199e-09 10.2786 0.731801 0.0259123 2.87e-09 -1.12592e-08 -1.92199e-09 2.22167 -0.733487 -0.20892 -2.52687e-13 2.08562e-13 6.01817e-13 -44.7572 28.0743 -3.38086 26.4288 -26.4188 -33.675 0.104181 -19.2091 2.68949 -1.5963e-09 -5.7141e-10 -2.67833e-09 -2.68995e-09 -9.87264e-10 -4.66219e-09 -1.5963e-09 -5.71409e-10 -2.67832e-09 -7.73091 5.47488 -0.417314 -1.5963e-09 -5.71411e-10 -2.67833e-09 -2.90554 0.965183 -0.102902 -1.5963e-09 -5.71413e-10 -2.67833e-09 -10.2786 0.731801 -0.0259123 -1.59629e-09 -5.71408e-10 -2.67833e-09 -2.22167 -0.733487 0.20892 -2.03217e-16 0.0 -3.88251e-19 -1.69637 -9.72687 -0.93441 -0.0133233 18.4997 0.328884 -4.28221 -7.88471 -14.8452 2.03217e-16 0.0 3.88251e-19 1.47168 -17.4687 -2.43744 0.0545329 24.8856 -0.36683 0.80401 -6.31877 2.00084
-208.901 81.926 2.83999 -177.781 67.0333 -176.044 -4.05314 14.8164 1.0848 0.906134 3.35624 0.309213 -9.52363 15.3895 -10.5375 32.0074 -33.0828 -9.99149 -0.0 0.0 0.0 -0.0 0.0 0.0 -3.57821e-13 2.89733e-13 8.44108e-13 44.2596 60.3767 26.3181 -26.8975 -27.4009 49.8825 -0.094839 -9.84995 -1.39496 4.03455e-09 -1.59288e-08 -2.71439e-09 6.99359e-09 -2.75608e-08 -4.6682e-09 4.03455e-09 -1.59288e-08 -2.7144e-09 7.73091 5.47488 0.417314 4.03454e-09 -1.59288e-08 -2.71439e-09 2.90554 0.965183 0.102902 4.03456e-09 -1.59288e-08 -2.71439e-09 10.2786 0.731801 0.0259123 4.03455e-09 -1.59288e-08 -2.71438e-09 2.22167 -0.733487 -0.20892 -3.57847e-13 2.89733e-13 8.43872e-13 -63.8178 40.87 -5.74386 28.1503 -30.8928 -53.2241 0.831268 -27.9789 4.19476 -2.28994e-09 -8.12954e-10 -3.80159e-09 -3.85982e-09 -1.40461e-09 -6.61741e-09 -2.28994e-09 -8.12954e-10 -3.80158e-09 -7.73091 5.47488 -0.417314 -2.28994e-09 -8.12956e-10 -3.80159e-09 -2.90554 0.965183 -0.102902 -2.28994e-09 -8.12958e-10 -3.80159e-09 -10.2786 0.731801 -0.0259123 -2.28993e-09 -8.12953e-10 -3.8016e-09 -2.22167 -0.733487 0.20892 -2.03217e-16 0.0 -3.88251e-19 -1.68099 -13.3028 -1.39018 -0.122529 27.9294 0.551096 -8.12203 -12.7559 -22.0823 2.03217e-16 0.0 3.88251e-19 3.16642 -21.1947 -3.79832 0.108954 31.1176 -0.443626 1.03103 -8.30091 2.92418
